<?xml version="1.0" encoding="UTF-8" standalone="no"?>
<!-- Created with Inkscape (http://www.inkscape.org/) -->

<svg
   width="120mm"
   height="120mm"
   viewBox="0 0 120 120"
   version="1.1"
   id="svg5"
   inkscape:version="1.1 (c68e22c387, 2021-05-23)"
   sodipodi:docname="codl.svg"
   xmlns:inkscape="http://www.inkscape.org/namespaces/inkscape"
   xmlns:sodipodi="http://sodipodi.sourceforge.net/DTD/sodipodi-0.dtd"
   xmlns="http://www.w3.org/2000/svg"
   xmlns:svg="http://www.w3.org/2000/svg">
  <sodipodi:namedview
     id="namedview7"
     pagecolor="#ffffff"
     bordercolor="#111111"
     borderopacity="1"
     inkscape:pageshadow="0"
     inkscape:pageopacity="1"
     inkscape:pagecheckerboard="1"
     inkscape:document-units="mm"
     showgrid="false"
     inkscape:snap-bbox="true"
     inkscape:bbox-paths="true"
     inkscape:snap-object-midpoints="true"
     inkscape:bbox-nodes="true"
     inkscape:snap-bbox-edge-midpoints="true"
     inkscape:snap-bbox-midpoints="true"
     inkscape:zoom="0.9814281"
     inkscape:cx="-169.65074"
     inkscape:cy="444.76004"
     inkscape:window-width="4500"
     inkscape:window-height="2980"
     inkscape:window-x="0"
     inkscape:window-y="20"
     inkscape:window-maximized="1"
     inkscape:current-layer="layer1"
     inkscape:snap-intersection-paths="true"
     fit-margin-top="0"
     fit-margin-left="0"
     fit-margin-right="0"
     fit-margin-bottom="0">
    <inkscape:grid
       type="xygrid"
       id="grid824"
       dotted="true"
       originx="-40.057064"
       originy="-169.29824" />
  </sodipodi:namedview>
  <defs
     id="defs2">
    <clipPath
       clipPathUnits="userSpaceOnUse"
       id="clipPath25254">
      <circle
         style="opacity:0.177191;vector-effect:non-scaling-stroke;fill:none;fill-opacity:1;stroke:#c4c4c4;stroke-width:0.0181538;stroke-miterlimit:4;stroke-dasharray:none;stroke-opacity:1;-inkscape-stroke:hairline;stop-color:#000000"
         id="circle25256"
         cx="-98.884277"
         cy="-33.271851"
         r="63.896046" />
    </clipPath>
  </defs>
  <g
     inkscape:label="Layer 1"
     inkscape:groupmode="layer"
     id="layer1"
     transform="translate(-11.720046,-62.259772)">
    <g
       id="g25239"
       clip-path="url(#clipPath25254)"
       transform="matrix(0.93902525,0,0,0.93902525,164.57488,153.50288)">
      <rect
         style="vector-effect:non-scaling-stroke;fill:#0a0700;fill-opacity:1;stroke:none;stroke-width:0.000701146;stroke-miterlimit:4;stroke-dasharray:none;stroke-opacity:1;-inkscape-stroke:hairline;stop-color:#000000"
         id="rect22931"
         width="241.73288"
         height="213.47202"
         x="-211.86003"
         y="-142.16513" />
      <ellipse
         style="opacity:0.159993;vector-effect:non-scaling-stroke;fill:#787878;fill-opacity:1;stroke:none;stroke-width:0.00100273;stroke-opacity:1;-inkscape-stroke:hairline;stop-color:#000000"
         id="path11476"
         cx="63.590401"
         cy="98.008003"
         transform="rotate(126)"
         rx="42.971394"
         ry="42.97139" />
      <ellipse
         style="opacity:0.159993;vector-effect:non-scaling-stroke;fill:#787878;fill-opacity:1;stroke:none;stroke-width:0.00100273;stroke-opacity:1;-inkscape-stroke:hairline;stop-color:#000000"
         id="path11476-1"
         cx="-53.159702"
         cy="62.684731"
         transform="rotate(54)"
         rx="42.97139"
         ry="42.971394" />
      <ellipse
         style="opacity:0.159993;vector-effect:non-scaling-stroke;fill:#787878;fill-opacity:1;stroke:none;stroke-width:0.00100273;stroke-opacity:1;-inkscape-stroke:hairline;stop-color:#000000"
         id="path11476-1-5"
         cx="-55.643047"
         cy="-59.266708"
         transform="rotate(-18.000003)"
         rx="42.971394"
         ry="42.97139" />
      <ellipse
         style="opacity:0.159993;vector-effect:non-scaling-stroke;fill:#787878;fill-opacity:1;stroke:none;stroke-width:0.00100273;stroke-opacity:1;-inkscape-stroke:hairline;stop-color:#000000"
         id="path11476-1-5-9-7"
         cx="133.26257"
         cy="-2.1124418"
         transform="rotate(-162)"
         rx="42.97139"
         ry="42.971394" />
      <path
         id="path9984"
         style="vector-effect:non-scaling-stroke;fill:#f9cb00;fill-opacity:1;stroke:none;stroke-width:0.000701151;stroke-linecap:butt;stroke-linejoin:miter;stroke-miterlimit:4;stroke-dasharray:none;stroke-opacity:1;-inkscape-stroke:hairline"
         d="m -59.745708,-42.91521 a 42.971389,42.971394 54 0 0 -1.083138,-0.66404 42.971389,42.971394 54 0 0 -2.723348,-1.411801 42.971389,42.971394 54 0 0 -2.816881,-1.214398 42.971389,42.971394 54 0 0 -2.896465,-1.010272 42.971389,42.971394 54 0 0 -1.104842,-0.298691 v 38.7444049 h 31.301449 a 42.971389,42.971394 54 0 0 -0.0067,-0.1322917 42.971389,42.971394 54 0 0 -0.0801,-1.0516155 42.971389,42.971394 54 0 0 -0.105937,-1.0490317 42.971389,42.971394 54 0 0 -0.131775,-1.046448 42.971389,42.971394 54 0 0 -0.157097,-1.04283 42.971389,42.971394 54 0 0 -0.182935,-1.038696 42.971389,42.971394 54 0 0 -0.208257,-1.034046 42.971389,42.971394 54 0 0 -0.233576,-1.028361 42.971389,42.971394 54 0 0 -0.2589,-1.022676 42.971389,42.971394 54 0 0 -0.283703,-1.015442 42.971389,42.971394 54 0 0 -0.308509,-1.008724 42.971389,42.971394 54 0 0 -0.05168,-0.155029 h -18.667595 z" />
      <path
         id="path6893"
         style="vector-effect:non-scaling-stroke;fill:#e00029;fill-opacity:1;stroke:none;stroke-width:0.000730541;stroke-opacity:1;-inkscape-stroke:hairline;stop-color:#000000"
         d="m -103.14771,-67.841854 a 30.533496,30.533496 0 0 0 -10.49186,-1.862934 30.533496,30.533496 0 0 0 -30.53354,30.533536 30.533496,30.533496 0 0 0 30.53354,30.5335366 30.533496,30.533496 0 0 0 10.49961,-1.8655196 42.971389,42.971394 71.999997 0 1 -1.59783,-1.760099 42.971389,42.971394 71.999997 0 1 -2.9993,-4.234367 42.971389,42.971394 71.999997 0 1 -1.72393,-3.191536 19.933374,19.933374 0 0 1 -1.20768,0.22841 19.933374,19.933374 0 0 1 -1.48156,0.166914 19.933374,19.933374 0 0 1 -1.48931,0.05581 19.933374,19.933374 0 0 1 -1.48984,-0.05581 19.933374,19.933374 0 0 1 -1.48104,-0.166914 19.933374,19.933374 0 0 1 -1.46503,-0.276986 19.933374,19.933374 0 0 1 -1.4397,-0.385506 19.933374,19.933374 0 0 1 -1.40715,-0.492477 19.933374,19.933374 0 0 1 -1.36633,-0.596346 19.933374,19.933374 0 0 1 -1.31775,-0.696598 19.933374,19.933374 0 0 1 -1.26245,-0.792716 19.933374,19.933374 0 0 1 -1.19941,-0.885218 19.933374,19.933374 0 0 1 -1.12965,-0.97255 19.933374,19.933374 0 0 1 -1.0542,-1.054199 19.933374,19.933374 0 0 1 -0.97203,-1.129647 19.933374,19.933374 0 0 1 -0.88522,-1.199411 19.933374,19.933374 0 0 1 -0.79323,-1.261939 19.933374,19.933374 0 0 1 -0.6966,-1.318265 19.933374,19.933374 0 0 1 -0.59583,-1.366324 19.933374,19.933374 0 0 1 -0.49248,-1.406633 19.933374,19.933374 0 0 1 -0.38602,-1.440223 19.933374,19.933374 0 0 1 -0.27698,-1.464508 19.933374,19.933374 0 0 1 -0.16692,-1.481564 19.933374,19.933374 0 0 1 -0.0558,-1.489315 19.933374,19.933374 0 0 1 0.0558,-1.489832 19.933374,19.933374 0 0 1 0.16692,-1.481045 19.933374,19.933374 0 0 1 0.27698,-1.465027 19.933374,19.933374 0 0 1 0.38602,-1.439706 19.933374,19.933374 0 0 1 0.49248,-1.40715 19.933374,19.933374 0 0 1 0.59583,-1.366324 19.933374,19.933374 0 0 1 0.6966,-1.317749 19.933374,19.933374 0 0 1 0.79323,-1.261938 19.933374,19.933374 0 0 1 0.88522,-1.19941 19.933374,19.933374 0 0 1 0.97203,-1.130165 19.933374,19.933374 0 0 1 1.0542,-1.054198 19.933374,19.933374 0 0 1 1.12965,-0.972034 19.933374,19.933374 0 0 1 1.19941,-0.885219 19.933374,19.933374 0 0 1 1.26245,-0.793231 19.933374,19.933374 0 0 1 1.31775,-0.696598 19.933374,19.933374 0 0 1 1.36633,-0.595831 19.933374,19.933374 0 0 1 1.40715,-0.492477 19.933374,19.933374 0 0 1 1.4397,-0.386022 19.933374,19.933374 0 0 1 1.46503,-0.276987 19.933374,19.933374 0 0 1 1.48104,-0.166912 19.933374,19.933374 0 0 1 1.48984,-0.05581 19.933374,19.933374 0 0 1 0.51314,0.0067 19.933374,19.933374 0 0 1 0.51263,0.02016 19.933374,19.933374 0 0 1 0.51263,0.03256 19.933374,19.933374 0 0 1 0.51108,0.04651 19.933374,19.933374 0 0 1 0.50953,0.05943 19.933374,19.933374 0 0 1 0.5085,0.07235 19.933374,19.933374 0 0 1 0.50591,0.08526 19.933374,19.933374 0 0 1 0.50385,0.0987 19.933374,19.933374 0 0 1 0.11679,0.02582 42.971389,42.971394 71.999997 0 1 1.1715,-2.298567 42.971389,42.971394 71.999997 0 1 2.89595,-4.306197 42.971389,42.971394 71.999997 0 1 2.23035,-2.579688 z" />
      <path
         id="path9716"
         style="vector-effect:non-scaling-stroke;fill:#fa8f00;fill-opacity:1;stroke:none;stroke-width:0.000730541;stroke-opacity:1;-inkscape-stroke:hairline;stop-color:#000000"
         d="m -85.267145,-70.533161 a 30.533496,30.533496 0 0 0 -3.422013,0.244946 v -0.05271 l -0.226861,0.06873 a 30.533496,30.533496 0 0 0 -10.065536,3.061311 l -0.331761,0.10077 v 21.665342 a 42.971389,42.971394 36 0 1 3.852476,1.908929 42.971389,42.971394 36 0 1 4.050916,2.609144 42.971389,42.971394 36 0 1 1.345655,1.018542 42.971389,42.971394 36 0 1 1.304314,1.070735 42.971389,42.971394 36 0 1 0.0708,0.06304 v -20.850924 a 19.933373,19.933373 0 0 1 0.451133,-0.08526 19.933373,19.933373 0 0 1 1.481564,-0.166915 19.933373,19.933373 0 0 1 1.489316,-0.05581 19.933373,19.933373 0 0 1 0.513664,0.0067 19.933373,19.933373 0 0 1 0.512631,0.01963 19.933373,19.933373 0 0 1 0.512111,0.03307 19.933373,19.933373 0 0 1 0.511598,0.04651 19.933373,19.933373 0 0 1 0.50953,0.05891 19.933373,19.933373 0 0 1 0.508495,0.07286 19.933373,19.933373 0 0 1 0.505912,0.08526 19.933373,19.933373 0 0 1 0.503846,0.0987 19.933373,19.933373 0 0 1 0.500745,0.111104 19.933373,19.933373 0 0 1 0.49816,0.12454 19.933373,19.933373 0 0 1 0.494544,0.136943 19.933373,19.933373 0 0 1 0.490926,0.149862 19.933373,19.933373 0 0 1 0.486791,0.162264 19.933373,19.933373 0 0 1 0.482658,0.175183 19.933373,19.933373 0 0 1 0.478007,0.187069 19.933373,19.933373 0 0 1 0.472839,0.199472 19.933373,19.933373 0 0 1 0.467673,0.211354 19.933373,19.933373 0 0 1 0.461986,0.223761 19.933373,19.933373 0 0 1 0.456303,0.235643 19.933373,19.933373 0 0 1 0.450101,0.247015 19.933373,19.933373 0 0 1 0.443384,0.258382 19.933373,19.933373 0 0 1 0.436668,0.26975 19.933373,19.933373 0 0 1 0.429429,0.28112 19.933373,19.933373 0 0 1 0.422199,0.291973 19.933373,19.933373 0 0 1 0.414443,0.302824 19.933373,19.933373 0 0 1 0.406178,0.313158 19.933373,19.933373 0 0 1 0.398425,0.324011 19.933373,19.933373 0 0 1 0.390157,0.33383 19.933373,19.933373 0 0 1 0.380855,0.343649 19.933373,19.933373 0 0 1 0.372586,0.353465 19.933373,19.933373 0 0 1 0.36277,0.36277 19.933373,19.933373 0 0 1 0.353465,0.372586 19.933373,19.933373 0 0 1 0.343649,0.380855 19.933373,19.933373 0 0 1 0.33383,0.390157 19.933373,19.933373 0 0 1 0.324011,0.397909 19.933373,19.933373 0 0 1 0.313159,0.406694 19.933373,19.933373 0 0 1 0.302826,0.414446 19.933373,19.933373 0 0 1 0.29197,0.422196 19.933373,19.933373 0 0 1 0.28112,0.429432 19.933373,19.933373 0 0 1 0.269751,0.436665 19.933373,19.933373 0 0 1 0.258384,0.443384 19.933373,19.933373 0 0 1 0.247012,0.450101 19.933373,19.933373 0 0 1 0.235643,0.456303 19.933373,19.933373 0 0 1 0.223242,0.461986 19.933373,19.933373 0 0 1 0.211873,0.467673 19.933373,19.933373 0 0 1 0.199472,0.472839 19.933373,19.933373 0 0 1 0.187069,0.478007 19.933373,19.933373 0 0 1 0.175183,0.482142 19.933373,19.933373 0 0 1 0.162264,0.487307 19.933373,19.933373 0 0 1 0.149862,0.490927 19.933373,19.933373 0 0 1 0.136943,0.494543 19.933373,19.933373 0 0 1 0.12454,0.49816 19.933373,19.933373 0 0 1 0.111104,0.500745 19.933373,19.933373 0 0 1 0.0987,0.503846 19.933373,19.933373 0 0 1 0.08527,0.505913 19.933373,19.933373 0 0 1 0.07286,0.508494 19.933373,19.933373 0 0 1 0.05891,0.509532 19.933373,19.933373 0 0 1 0.04651,0.511596 19.933373,19.933373 0 0 1 0.03307,0.512114 19.933373,19.933373 0 0 1 0.01963,0.51263 19.933373,19.933373 0 0 1 0.0067,0.513147 19.933373,19.933373 0 0 1 -0.05581,1.489831 19.933373,19.933373 0 0 1 -0.166915,1.481564 19.933373,19.933373 0 0 1 -0.276987,1.464508 19.933373,19.933373 0 0 1 -0.386022,1.439707 19.933373,19.933373 0 0 1 -0.492477,1.407149 19.933373,19.933373 0 0 1 -0.595828,1.366324 19.933373,19.933373 0 0 1 -0.6966,1.317749 19.933373,19.933373 0 0 1 -0.793232,1.262457 19.933373,19.933373 0 0 1 -0.885219,1.199409 19.933373,19.933373 0 0 1 -0.972034,1.129647 19.933373,19.933373 0 0 1 -1.054198,1.054199 19.933373,19.933373 0 0 1 -1.129646,0.972034 19.933373,19.933373 0 0 1 -1.199409,0.885217 19.933373,19.933373 0 0 1 -1.262457,0.793233 19.933373,19.933373 0 0 1 -1.31775,0.696599 19.933373,19.933373 0 0 1 -0.109037,0.04754 42.971389,42.971394 36 0 1 0.374655,0.958081 42.971389,42.971394 36 0 1 0.552937,1.594218 42.971389,42.971394 36 0 1 0.489892,1.614371 42.971389,42.971394 36 0 1 0.425815,1.632976 42.971389,42.971394 36 0 1 0.361736,1.647961 42.971389,42.971394 36 0 1 0.296622,1.661398 42.971389,42.971394 36 0 1 0.177249,1.277958 30.533496,30.533496 0 0 0 19.314583,-28.394132 30.533496,30.533496 0 0 0 -30.533535,-30.53302 z" />
      <path
         id="path10089"
         style="vector-effect:non-scaling-stroke;fill:#f64200;fill-opacity:1;stroke:none;stroke-width:0.000476925;stroke-opacity:1;-inkscape-stroke:hairline;stop-color:#000000"
         d="m -97.073142,-8.7648396 a 42.971389,42.971394 18 0 0 2.355927,-2.4990724 42.971389,42.971394 18 0 0 2.578137,-3.336747 42.971389,42.971394 18 0 0 2.238623,-3.573942 42.971389,42.971394 18 0 0 1.877404,-3.775997 42.971389,42.971394 18 0 0 1.4981,-3.941878 42.971389,42.971394 18 0 0 0.429432,-1.403015 42.971389,42.971394 18 0 0 0.381889,-1.416968 42.971389,42.971394 18 0 0 0.33228,-1.428853 42.971389,42.971394 18 0 0 0.284221,-1.439706 42.971389,42.971394 18 0 0 0.234092,-1.448491 42.971389,42.971394 18 0 0 0.185002,-1.455724 42.971389,42.971394 18 0 0 0.135393,-1.460895 42.971389,42.971394 18 0 0 0.08475,-1.465024 42.971389,42.971394 18 0 0 0.03514,-1.466577 42.971389,42.971394 18 0 0 -0.01499,-1.467612 42.971389,42.971394 18 0 0 -0.06511,-1.465543 42.971389,42.971394 18 0 0 -0.0083,-0.104905 19.933374,19.933374 0 0 0 -14.802715,-6.588744 19.933374,19.933374 0 0 0 -19.933663,19.933666 19.933374,19.933374 0 0 0 19.933663,19.9331515 19.933374,19.933374 0 0 0 2.240693,-0.1271241 z m -2.240693,-29.1145034 a 9.30838,9.30838 0 0 1 0.347784,0.0062 9.30838,9.30838 0 0 1 0.347782,0.01964 9.30838,9.30838 0 0 1 0.34675,0.03256 9.30838,9.30838 0 0 1 0.34468,0.04547 9.30838,9.30838 0 0 1 0.343649,0.0584 9.30838,9.30838 0 0 1 0.340548,0.07079 9.30838,9.30838 0 0 1 0.337963,0.08423 9.30838,9.30838 0 0 1 0.334349,0.09612 9.30838,9.30838 0 0 1 0.330729,0.109037 9.30838,9.30838 0 0 1 0.326593,0.120923 9.30838,9.30838 0 0 1 0.321427,0.133326 9.30838,9.30838 0 0 1 0.316262,0.145211 9.30838,9.30838 0 0 1 0.311091,0.156581 9.30838,9.30838 0 0 1 0.304374,0.168465 9.30838,9.30838 0 0 1 0.298173,0.179832 9.30838,9.30838 0 0 1 0.291454,0.190688 9.30838,9.30838 0 0 1 0.283705,0.20102 9.30838,9.30838 0 0 1 0.276468,0.212391 9.30838,9.30838 0 0 1 0.267684,0.221692 9.30838,9.30838 0 0 1 0.259932,0.232027 9.30838,9.30838 0 0 1 0.250632,0.241845 9.30838,9.30838 0 0 1 0.241329,0.250631 9.30838,9.30838 0 0 1 0.232027,0.259416 9.30838,9.30838 0 0 1 0.222207,0.268201 9.30838,9.30838 0 0 1 0.211876,0.275952 9.30838,9.30838 0 0 1 0.201536,0.284221 9.30838,9.30838 0 0 1 0.190688,0.290938 9.30838,9.30838 0 0 1 0.179316,0.298172 9.30838,9.30838 0 0 1 0.168465,0.30489 9.30838,9.30838 0 0 1 0.157097,0.310576 9.30838,9.30838 0 0 1 0.145211,0.316259 9.30838,9.30838 0 0 1 0.132807,0.321945 9.30838,9.30838 0 0 1 0.121442,0.326078 9.30838,9.30838 0 0 1 0.108518,0.330729 9.30838,9.30838 0 0 1 0.09664,0.334865 9.30838,9.30838 0 0 1 0.08371,0.337447 9.30838,9.30838 0 0 1 0.07131,0.341064 9.30838,9.30838 0 0 1 0.05788,0.34313 9.30838,9.30838 0 0 1 0.04548,0.345199 9.30838,9.30838 0 0 1 0.03256,0.346234 9.30838,9.30838 0 0 1 0.01964,0.347781 9.30838,9.30838 0 0 1 0.0067,0.348298 9.30838,9.30838 0 0 1 -0.05891,1.041797 9.30838,9.30838 0 0 1 -0.174667,1.029396 9.30838,9.30838 0 0 1 -0.288869,1.003039 9.30838,9.30838 0 0 1 -0.39946,0.964282 9.30838,9.30838 0 0 1 -0.504878,0.91364 9.30838,9.30838 0 0 1 -0.6041,0.85111 9.30838,9.30838 0 0 1 -0.695563,0.778764 9.30838,9.30838 0 0 1 -0.778248,0.695565 9.30838,9.30838 0 0 1 -0.851627,0.603581 9.30838,9.30838 0 0 1 -0.913638,0.505395 9.30838,9.30838 0 0 1 -0.964282,0.399459 9.30838,9.30838 0 0 1 -1.003041,0.288871 9.30838,9.30838 0 0 1 -1.028877,0.174667 9.30838,9.30838 0 0 1 -1.042316,0.05839 9.30838,9.30838 0 0 1 -1.042317,-0.05839 9.30838,9.30838 0 0 1 -1.02887,-0.174667 9.30838,9.30838 0 0 1 -1.00305,-0.288871 9.30838,9.30838 0 0 1 -0.96479,-0.399459 9.30838,9.30838 0 0 1 -0.91364,-0.505395 9.30838,9.30838 0 0 1 -0.85111,-0.603581 9.30838,9.30838 0 0 1 -0.77825,-0.695565 9.30838,9.30838 0 0 1 -0.69556,-0.778764 9.30838,9.30838 0 0 1 -0.6041,-0.85111 9.30838,9.30838 0 0 1 -0.50488,-0.91364 9.30838,9.30838 0 0 1 -0.39946,-0.964282 9.30838,9.30838 0 0 1 -0.28887,-1.003039 9.30838,9.30838 0 0 1 -0.17518,-1.029396 9.30838,9.30838 0 0 1 -0.0584,-1.041797 9.30838,9.30838 0 0 1 0.0584,-1.042313 9.30838,9.30838 0 0 1 0.17518,-1.029393 9.30838,9.30838 0 0 1 0.28887,-1.003041 9.30838,9.30838 0 0 1 0.39946,-0.964282 9.30838,9.30838 0 0 1 0.50488,-0.913638 9.30838,9.30838 0 0 1 0.6041,-0.851111 9.30838,9.30838 0 0 1 0.69556,-0.778248 9.30838,9.30838 0 0 1 0.77825,-0.695564 9.30838,9.30838 0 0 1 0.85111,-0.604099 9.30838,9.30838 0 0 1 0.91364,-0.504878 9.30838,9.30838 0 0 1 0.96479,-0.39946 9.30838,9.30838 0 0 1 1.00305,-0.289388 9.30838,9.30838 0 0 1 1.02887,-0.174664 9.30838,9.30838 0 0 1 1.042317,-0.0584 z" />
      <path
         id="path11542"
         style="vector-effect:non-scaling-stroke;fill:#f86900;fill-opacity:1;stroke:none;stroke-width:0.000476925;stroke-opacity:1;-inkscape-stroke:hairline;stop-color:#000000"
         d="m -99.313316,-48.504533 v 3.059761 a 42.971389,42.971394 36 0 1 1.950267,0.906407 42.971389,42.971394 36 0 1 1.902209,1.002522 42.971389,42.971394 36 0 1 1.382345,0.819071 42.971389,42.971394 36 0 1 1.351341,0.87023 42.971389,42.971394 36 0 1 1.31723,0.919843 42.971389,42.971394 36 0 1 1.345655,1.018542 42.971389,42.971394 36 0 1 1.304314,1.070735 42.971389,42.971394 36 0 1 0.0708,0.06304 v -6.643005 a 19.933374,19.933374 0 0 0 -10.624158,-3.087151 z" />
      <path
         id="path6893-6"
         style="opacity:0.405477;vector-effect:non-scaling-stroke;fill:#00ab6c;fill-opacity:1;stroke:none;stroke-width:0.000730541;stroke-opacity:1;-inkscape-stroke:hairline;stop-color:#000000"
         d="m -114.17701,-19.258256 a 42.971394,42.971394 0 0 0 0.1664,0.06615 42.971394,42.971394 0 0 0 2.37298,0.785999 42.971394,42.971394 0 0 0 2.41432,0.646988 42.971394,42.971394 0 0 0 0.8723,0.180351 42.971389,42.971394 71.999997 0 1 -1.11001,-2.110465 19.933374,19.933374 0 0 1 -1.20768,0.22841 19.933374,19.933374 0 0 1 -1.48156,0.166914 19.933374,19.933374 0 0 1 -1.48931,0.05581 19.933374,19.933374 0 0 1 -0.53744,-0.02015 z" />
      <path
         id="path6893-8"
         style="vector-effect:non-scaling-stroke;fill:#eb2115;fill-opacity:1;stroke:none;stroke-width:0.000730541;stroke-opacity:1;-inkscape-stroke:hairline;stop-color:#000000"
         d="m -117.06779,-19.547127 a 19.933374,19.933374 0 0 0 0.49093,0.943095 19.933374,19.933374 0 0 0 0.93431,1.466577 19.933374,19.933374 0 0 0 1.05885,1.379244 19.933374,19.933374 0 0 0 1.1746,1.282092 19.933374,19.933374 0 0 0 1.2821,1.175122 19.933374,19.933374 0 0 0 1.37975,1.058334 19.933374,19.933374 0 0 0 1.46658,0.93431 19.933374,19.933374 0 0 0 1.54254,0.803051 19.933374,19.933374 0 0 0 1.60663,0.6655927 19.933374,19.933374 0 0 0 0.43046,0.135909 30.533496,30.533496 0 0 0 2.56108,-0.7994347 42.971389,42.971394 71.999997 0 1 -1.59783,-1.760099 42.971389,42.971394 71.999997 0 1 -2.9993,-4.234367 42.971389,42.971394 71.999997 0 1 -1.72393,-3.191536 19.933374,19.933374 0 0 1 -1.20768,0.22841 19.933374,19.933374 0 0 1 -1.48156,0.166914 19.933374,19.933374 0 0 1 -1.48931,0.05581 19.933374,19.933374 0 0 1 -1.48984,-0.05581 19.933374,19.933374 0 0 1 -1.48104,-0.166914 19.933374,19.933374 0 0 1 -0.45734,-0.0863 z" />
      <path
         id="path11761"
         style="vector-effect:non-scaling-stroke;fill:#f9ad00;fill-opacity:1;stroke:none;stroke-width:0.000730541;stroke-opacity:1;-inkscape-stroke:hairline;stop-color:#000000"
         d="M -59.745707,-23.256461 V -42.91521 a 42.971389,42.971394 54 0 0 -1.083138,-0.66404 42.971389,42.971394 54 0 0 -1.349272,-0.73019 42.971389,42.971394 54 0 0 -1.374077,-0.681611 42.971389,42.971394 54 0 0 -1.397846,-0.632521 42.971389,42.971394 54 0 0 -1.368391,-0.561205 19.933373,19.933373 0 0 1 0.04082,0.122989 19.933373,19.933373 0 0 1 0.149862,0.490926 19.933373,19.933373 0 0 1 0.136943,0.494544 19.933373,19.933373 0 0 1 0.12454,0.49816 19.933373,19.933373 0 0 1 0.111104,0.500745 19.933373,19.933373 0 0 1 0.0987,0.503846 19.933373,19.933373 0 0 1 0.08527,0.505912 19.933373,19.933373 0 0 1 0.07286,0.508495 19.933373,19.933373 0 0 1 0.05891,0.509532 19.933373,19.933373 0 0 1 0.04651,0.511596 19.933373,19.933373 0 0 1 0.03307,0.512114 19.933373,19.933373 0 0 1 0.01963,0.51263 19.933373,19.933373 0 0 1 0.0067,0.513146 19.933373,19.933373 0 0 1 -0.05581,1.489832 19.933373,19.933373 0 0 1 -0.166915,1.481563 19.933373,19.933373 0 0 1 -0.276987,1.464509 19.933373,19.933373 0 0 1 -0.386022,1.439706 19.933373,19.933373 0 0 1 -0.492477,1.40715 19.933373,19.933373 0 0 1 -0.595828,1.366324 19.933373,19.933373 0 0 1 -0.6966,1.317749 19.933373,19.933373 0 0 1 -0.793232,1.262457 19.933373,19.933373 0 0 1 -0.885219,1.199409 19.933373,19.933373 0 0 1 -0.687813,0.811837 v 13.395564 a 30.533496,30.533496 0 0 0 10.624674,-9.892419 z" />
      <ellipse
         style="opacity:0.177191;vector-effect:non-scaling-stroke;fill:#088385;fill-opacity:0.989351;stroke:none;stroke-width:0.000981802;stroke-opacity:1;-inkscape-stroke:hairline;stop-color:#000000"
         id="path11476-1-5-9"
         cx="57.647045"
         cy="-98.975662"
         transform="rotate(-90)"
         rx="42.271755"
         ry="41.878754" />
      <ellipse
         style="opacity:0;vector-effect:non-scaling-stroke;fill:#fefefe;fill-opacity:1;stroke:none;stroke-width:0.00100273;stroke-opacity:1;-inkscape-stroke:hairline;stop-color:#000000"
         id="path11476-0"
         cx="63.590401"
         cy="98.008003"
         transform="rotate(126)"
         rx="42.971394"
         ry="42.97139" />
      <ellipse
         style="opacity:0;vector-effect:non-scaling-stroke;fill:#fefefe;fill-opacity:1;stroke:none;stroke-width:0.00100273;stroke-opacity:1;-inkscape-stroke:hairline;stop-color:#000000"
         id="path11476-1-6"
         cx="-53.159702"
         cy="62.684731"
         transform="rotate(54)"
         rx="42.97139"
         ry="42.971394" />
      <ellipse
         style="opacity:0;vector-effect:non-scaling-stroke;fill:#fefefe;fill-opacity:1;stroke:none;stroke-width:0.00100273;stroke-opacity:1;-inkscape-stroke:hairline;stop-color:#000000"
         id="path11476-1-5-3"
         cx="-55.643047"
         cy="-59.266708"
         transform="rotate(-18.000003)"
         rx="42.971394"
         ry="42.97139" />
      <ellipse
         style="opacity:0;vector-effect:non-scaling-stroke;fill:#fefefe;fill-opacity:1;stroke:none;stroke-width:0.00100273;stroke-opacity:1;-inkscape-stroke:hairline;stop-color:#000000"
         id="path11476-1-5-9-7-2"
         cx="133.26257"
         cy="-2.1124418"
         transform="rotate(-162)"
         rx="42.97139"
         ry="42.971394" />
      <ellipse
         style="opacity:0.071;vector-effect:non-scaling-stroke;fill:#088385;fill-opacity:0.989351;stroke:none;stroke-width:0.00100273;stroke-opacity:1;-inkscape-stroke:hairline;stop-color:#000000"
         id="path11476-06"
         cx="63.590401"
         cy="98.008003"
         transform="rotate(126)"
         rx="42.971394"
         ry="42.97139" />
      <ellipse
         style="opacity:0.071;vector-effect:non-scaling-stroke;fill:#088385;fill-opacity:0.989351;stroke:none;stroke-width:0.00100273;stroke-opacity:1;-inkscape-stroke:hairline;stop-color:#000000"
         id="path11476-1-1"
         cx="-53.159702"
         cy="62.684731"
         transform="rotate(54)"
         rx="42.97139"
         ry="42.971394" />
      <ellipse
         style="opacity:0.071;vector-effect:non-scaling-stroke;fill:#088385;fill-opacity:0.989351;stroke:none;stroke-width:0.00100273;stroke-opacity:1;-inkscape-stroke:hairline;stop-color:#000000"
         id="path11476-1-5-5"
         cx="-55.643047"
         cy="-59.266708"
         transform="rotate(-18.000003)"
         rx="42.971394"
         ry="42.97139" />
      <ellipse
         style="opacity:0.071;vector-effect:non-scaling-stroke;fill:#088385;fill-opacity:0.989351;stroke:none;stroke-width:0.00100273;stroke-opacity:1;-inkscape-stroke:hairline;stop-color:#000000"
         id="path11476-1-5-9-7-5"
         cx="133.26257"
         cy="-2.1124418"
         transform="rotate(-162)"
         rx="42.97139"
         ry="42.971394" />
    </g>
  </g>
</svg>
