<?xml version="1.0" encoding="UTF-8" standalone="no"?>
<!-- Created with Inkscape (http://www.inkscape.org/) -->

<svg
   width="120.00001mm"
   height="70.667984mm"
   viewBox="0 0 120.00001 70.667984"
   version="1.1"
   id="svg5"
   inkscape:version="1.1 (c68e22c387, 2021-05-23)"
   sodipodi:docname="codl2.svg"
   xmlns:inkscape="http://www.inkscape.org/namespaces/inkscape"
   xmlns:sodipodi="http://sodipodi.sourceforge.net/DTD/sodipodi-0.dtd"
   xmlns="http://www.w3.org/2000/svg"
   xmlns:svg="http://www.w3.org/2000/svg">
  <sodipodi:namedview
     id="namedview7"
     pagecolor="#ffffff"
     bordercolor="#111111"
     borderopacity="1"
     inkscape:pageshadow="0"
     inkscape:pageopacity="1"
     inkscape:pagecheckerboard="1"
     inkscape:document-units="mm"
     showgrid="false"
     inkscape:snap-bbox="true"
     inkscape:bbox-paths="true"
     inkscape:snap-object-midpoints="true"
     inkscape:bbox-nodes="true"
     inkscape:snap-bbox-edge-midpoints="true"
     inkscape:snap-bbox-midpoints="true"
     inkscape:zoom="1.9628562"
     inkscape:cx="88.3916"
     inkscape:cy="-16.557504"
     inkscape:window-width="4500"
     inkscape:window-height="2980"
     inkscape:window-x="0"
     inkscape:window-y="20"
     inkscape:window-maximized="1"
     inkscape:current-layer="layer1"
     inkscape:snap-intersection-paths="true"
     fit-margin-top="0"
     fit-margin-left="0"
     fit-margin-right="0"
     fit-margin-bottom="0">
    <inkscape:grid
       type="xygrid"
       id="grid824"
       dotted="true"
       originx="-40.761574"
       originy="-189.16627" />
  </sodipodi:namedview>
  <defs
     id="defs2">
    <clipPath
       clipPathUnits="userSpaceOnUse"
       id="clipPath25254">
      <circle
         style="opacity:0.177191;vector-effect:non-scaling-stroke;fill:none;fill-opacity:1;stroke:#c4c4c4;stroke-width:0.0181538;stroke-miterlimit:4;stroke-dasharray:none;stroke-opacity:1;-inkscape-stroke:hairline;stop-color:#000000"
         id="circle25256"
         cx="-98.884277"
         cy="-33.271851"
         r="63.896046" />
    </clipPath>
  </defs>
  <g
     inkscape:label="Layer 1"
     inkscape:groupmode="layer"
     id="layer1"
     transform="translate(-12.424555,-82.1278)">
    <g
       id="g12105"
       transform="matrix(1.2158613,0,0,1.2158613,-15.633655,-25.355448)">
      <path
         id="path6893-5-0"
         style="vector-effect:non-scaling-stroke;fill:#df1c53;fill-opacity:1;stroke:none;stroke-width:0.000685996;stroke-opacity:1;-inkscape-stroke:hairline;stop-color:#000000"
         d="m 61.600711,90.928472 a 28.671724,28.671724 0 0 0 -9.85212,-1.74934 28.671724,28.671724 0 0 0 -28.671773,28.671768 28.671724,28.671724 0 0 0 28.671773,28.67176 28.671724,28.671724 0 0 0 9.85939,-1.75177 40.351219,40.351224 71.999997 0 1 -1.5004,-1.65278 40.351219,40.351224 71.999997 0 1 -2.81642,-3.97618 40.351219,40.351224 71.999997 0 1 -1.61881,-2.99693 18.717942,18.717942 0 0 1 -1.13404,0.21448 18.717942,18.717942 0 0 1 -1.39122,0.15674 18.717942,18.717942 0 0 1 -1.3985,0.0524 18.717942,18.717942 0 0 1 -1.399,-0.0524 18.717942,18.717942 0 0 1 -1.39074,-0.15674 18.717942,18.717942 0 0 1 -1.3757,-0.26009 18.717942,18.717942 0 0 1 -1.35191,-0.362 18.717942,18.717942 0 0 1 -1.32135,-0.46245 18.717942,18.717942 0 0 1 -1.28302,-0.55999 18.717942,18.717942 0 0 1 -1.2374,-0.65412 18.717942,18.717942 0 0 1 -1.18547,-0.74438 18.717942,18.717942 0 0 1 -1.12628,-0.83124 18.717942,18.717942 0 0 1 -1.06077,-0.91325 18.717942,18.717942 0 0 1 -0.98992,-0.98992 18.717942,18.717942 0 0 1 -0.91276,-1.06077 18.717942,18.717942 0 0 1 -0.83124,-1.12628 18.717942,18.717942 0 0 1 -0.74486,-1.18499 18.717942,18.717942 0 0 1 -0.65413,-1.23788 18.717942,18.717942 0 0 1 -0.5595,-1.28301 18.717942,18.717942 0 0 1 -0.46245,-1.32087 18.717942,18.717942 0 0 1 -0.362483,-1.3524 18.717942,18.717942 0 0 1 -0.26009,-1.37521 18.717942,18.717942 0 0 1 -0.15674,-1.39123 18.717942,18.717942 0 0 1 -0.0524,-1.3985 18.717942,18.717942 0 0 1 0.0524,-1.39899 18.717942,18.717942 0 0 1 0.15674,-1.39074 18.717942,18.717942 0 0 1 0.26009,-1.3757 18.717942,18.717942 0 0 1 0.362483,-1.35192 18.717942,18.717942 0 0 1 0.46245,-1.32135 18.717942,18.717942 0 0 1 0.5595,-1.28301 18.717942,18.717942 0 0 1 0.65413,-1.2374 18.717942,18.717942 0 0 1 0.74486,-1.18499 18.717942,18.717942 0 0 1 0.83124,-1.12628 18.717942,18.717942 0 0 1 0.91276,-1.06125 18.717942,18.717942 0 0 1 0.98992,-0.98992 18.717942,18.717942 0 0 1 1.06077,-0.91277 18.717942,18.717942 0 0 1 1.12628,-0.83124 18.717942,18.717942 0 0 1 1.18547,-0.74486 18.717942,18.717942 0 0 1 1.2374,-0.65413 18.717942,18.717942 0 0 1 1.28302,-0.5595 18.717942,18.717942 0 0 1 1.32135,-0.462448 18.717942,18.717942 0 0 1 1.35191,-0.36248 18.717942,18.717942 0 0 1 1.3757,-0.2601 18.717942,18.717942 0 0 1 1.39074,-0.15673 18.717942,18.717942 0 0 1 1.399,-0.0524 18.717942,18.717942 0 0 1 0.48185,0.006 18.717942,18.717942 0 0 1 0.48137,0.0189 18.717942,18.717942 0 0 1 0.48137,0.0306 18.717942,18.717942 0 0 1 0.47992,0.0437 18.717942,18.717942 0 0 1 0.47846,0.0558 18.717942,18.717942 0 0 1 0.4775,0.0679 18.717942,18.717942 0 0 1 0.47506,0.0801 18.717942,18.717942 0 0 1 0.47313,0.0927 18.717942,18.717942 0 0 1 0.10966,0.0242 40.351219,40.351224 71.999997 0 1 1.10007,-2.15842 40.351219,40.351224 71.999997 0 1 2.71937,-4.04362 40.351219,40.351224 71.999997 0 1 2.09436,-2.4224 z" />
      <path
         id="path9716-3-9"
         style="vector-effect:non-scaling-stroke;fill:#0c4b73;fill-opacity:1;stroke:none;stroke-width:0.000685996;stroke-opacity:1;-inkscape-stroke:hairline;stop-color:#000000"
         d="m 78.391011,88.401272 a 28.671724,28.671724 0 0 0 -3.213357,0.23001 v -0.0495 l -0.213028,0.0645 a 28.671724,28.671724 0 0 0 -9.451795,2.87465 l -0.31153,0.0946 v 20.344298 a 40.351219,40.351224 36 0 1 3.61757,1.79253 40.351219,40.351224 36 0 1 3.80391,2.45006 40.351219,40.351224 36 0 1 1.26361,0.95643 40.351219,40.351224 36 0 1 1.224783,1.00545 40.351219,40.351224 36 0 1 0.06648,0.0592 V 98.643962 a 18.717941,18.717941 0 0 1 0.423625,-0.0801 18.717941,18.717941 0 0 1 1.391226,-0.15674 18.717941,18.717941 0 0 1 1.398506,-0.0524 18.717941,18.717941 0 0 1 0.482343,0.006 18.717941,18.717941 0 0 1 0.481374,0.0184 18.717941,18.717941 0 0 1 0.480885,0.0311 18.717941,18.717941 0 0 1 0.480403,0.0437 18.717941,18.717941 0 0 1 0.478462,0.0553 18.717941,18.717941 0 0 1 0.477489,0.0684 18.717941,18.717941 0 0 1 0.475065,0.0801 18.717941,18.717941 0 0 1 0.473124,0.0927 18.717941,18.717941 0 0 1 0.470212,0.10433 18.717941,18.717941 0 0 1 0.467785,0.11695 18.717941,18.717941 0 0 1 0.464389,0.12859 18.717941,18.717941 0 0 1 0.460992,0.14073 18.717941,18.717941 0 0 1 0.457109,0.15237 18.717941,18.717941 0 0 1 0.453228,0.1645 18.717941,18.717941 0 0 1 0.448861,0.17566 18.717941,18.717941 0 0 1 0.444007,0.18731 18.717941,18.717941 0 0 1 0.439157,0.198468 18.717941,18.717941 0 0 1 0.433817,0.21011 18.717941,18.717941 0 0 1 0.42848,0.22128 18.717941,18.717941 0 0 1 0.422656,0.23195 18.717941,18.717941 0 0 1 0.416349,0.24263 18.717941,18.717941 0 0 1 0.410042,0.2533 18.717941,18.717941 0 0 1 0.403245,0.26398 18.717941,18.717941 0 0 1 0.396455,0.27417 18.717941,18.717941 0 0 1 0.389173,0.28436 18.717941,18.717941 0 0 1 0.381411,0.29407 18.717941,18.717941 0 0 1 0.374131,0.30425 18.717941,18.717941 0 0 1 0.366367,0.31347 18.717941,18.717941 0 0 1 0.357633,0.3227 18.717941,18.717941 0 0 1 0.349867,0.33191 18.717941,18.717941 0 0 1 0.340651,0.34065 18.717941,18.717941 0 0 1 0.331912,0.34987 18.717941,18.717941 0 0 1 0.322695,0.35763 18.717941,18.717941 0 0 1 0.313475,0.36637 18.717941,18.717941 0 0 1 0.304255,0.37365 18.717941,18.717941 0 0 1 0.294064,0.38189 18.717941,18.717941 0 0 1 0.284361,0.38918 18.717941,18.717941 0 0 1 0.27417,0.39645 18.717941,18.717941 0 0 1 0.26398,0.40325 18.717941,18.717941 0 0 1 0.2533,0.41004 18.717941,18.717941 0 0 1 0.24263,0.41635 18.717941,18.717941 0 0 1 0.23195,0.42265 18.717941,18.717941 0 0 1 0.22128,0.42848 18.717941,18.717941 0 0 1 0.20963,0.43382 18.717941,18.717941 0 0 1 0.19895,0.43916 18.717941,18.717941 0 0 1 0.18731,0.444 18.717941,18.717941 0 0 1 0.17566,0.44886 18.717941,18.717941 0 0 1 0.16451,0.45275 18.717941,18.717941 0 0 1 0.15237,0.45759 18.717941,18.717941 0 0 1 0.14072,0.46099 18.717941,18.717941 0 0 1 0.12859,0.46439 18.717941,18.717941 0 0 1 0.11695,0.46779 18.717941,18.717941 0 0 1 0.10433,0.47021 18.717941,18.717941 0 0 1 0.0927,0.47312 18.717941,18.717941 0 0 1 0.0801,0.47507 18.717941,18.717941 0 0 1 0.0684,0.47749 18.717941,18.717941 0 0 1 0.0553,0.47846 18.717941,18.717941 0 0 1 0.0437,0.4804 18.717941,18.717941 0 0 1 0.031,0.48089 18.717941,18.717941 0 0 1 0.0184,0.48137 18.717941,18.717941 0 0 1 0.006,0.48186 18.717941,18.717941 0 0 1 -0.0524,1.39899 18.717941,18.717941 0 0 1 -0.15674,1.39123 18.717941,18.717941 0 0 1 -0.260093,1.37521 18.717941,18.717941 0 0 1 -0.36249,1.35192 18.717941,18.717941 0 0 1 -0.46245,1.32135 18.717941,18.717941 0 0 1 -0.55949,1.28301 18.717941,18.717941 0 0 1 -0.65413,1.2374 18.717941,18.717941 0 0 1 -0.744869,1.18548 18.717941,18.717941 0 0 1 -0.831243,1.12627 18.717941,18.717941 0 0 1 -0.912765,1.06077 18.717941,18.717941 0 0 1 -0.989918,0.98992 18.717941,18.717941 0 0 1 -1.060766,0.91276 18.717941,18.717941 0 0 1 -1.126276,0.83124 18.717941,18.717941 0 0 1 -1.185479,0.74487 18.717941,18.717941 0 0 1 -1.2374,0.65412 18.717941,18.717941 0 0 1 -0.102389,0.0446 40.351219,40.351224 36 0 1 0.351811,0.89966 40.351219,40.351224 36 0 1 0.519222,1.49701 40.351219,40.351224 36 0 1 0.460021,1.51593 40.351219,40.351224 36 0 1 0.399851,1.53341 40.351219,40.351224 36 0 1 0.339679,1.54748 40.351219,40.351224 36 0 1 0.278535,1.56009 40.351219,40.351224 36 0 1 0.166442,1.20004 28.671724,28.671724 0 0 0 18.137202,-26.66276 28.671724,28.671724 0 0 0 -28.671748,-28.671278 z" />
      <path
         id="path9984-7-3"
         style="vector-effect:non-scaling-stroke;fill:#ffc604;fill-opacity:1;stroke:none;stroke-width:0.000658398;stroke-linecap:butt;stroke-linejoin:miter;stroke-miterlimit:4;stroke-dasharray:none;stroke-opacity:1;-inkscape-stroke:hairline"
         d="m 102.35627,114.33522 a 40.351219,40.351224 54 0 0 -1.01709,-0.62355 40.351219,40.351224 54 0 0 -2.557281,-1.32571 40.351219,40.351224 54 0 0 -2.645124,-1.14035 40.351219,40.351224 54 0 0 -2.719853,-0.94867 40.351219,40.351224 54 0 0 -1.037475,-0.28048 v 36.38197 h 29.392843 a 40.351219,40.351224 54 0 0 -0.006,-0.12422 40.351219,40.351224 54 0 0 -0.0752,-0.9875 40.351219,40.351224 54 0 0 -0.0995,-0.98506 40.351219,40.351224 54 0 0 -0.12374,-0.98265 40.351219,40.351224 54 0 0 -0.14752,-0.97924 40.351219,40.351224 54 0 0 -0.17178,-0.97536 40.351219,40.351224 54 0 0 -0.19556,-0.971 40.351219,40.351224 54 0 0 -0.21933,-0.96565 40.351219,40.351224 54 0 0 -0.24311,-0.96032 40.351219,40.351224 54 0 0 -0.26641,-0.95353 40.351219,40.351224 54 0 0 -0.2897,-0.94721 40.351219,40.351224 54 0 0 -0.0485,-0.14558 H 102.3566 Z" />
      <path
         id="path9984-3-6"
         style="vector-effect:non-scaling-stroke;fill:#85883c;fill-opacity:1;stroke:none;stroke-width:0.000658397;stroke-linecap:butt;stroke-linejoin:miter;stroke-miterlimit:4;stroke-dasharray:none;stroke-opacity:1;-inkscape-stroke:hairline"
         d="m 96.184175,111.26518 a 18.717941,18.717941 0 0 1 0.0382,0.11524 18.717941,18.717941 0 0 1 0.14108,0.46095 18.717941,18.717941 0 0 1 0.12868,0.46457 18.717941,18.717941 0 0 1 0.11679,0.46767 18.717941,18.717941 0 0 1 0.10438,0.47026 18.717941,18.717941 0 0 1 0.0925,0.47335 18.717941,18.717941 0 0 1 0.0801,0.47491 18.717941,18.717941 0 0 1 0.0687,0.47749 18.717941,18.717941 0 0 1 0.0553,0.47852 18.717941,18.717941 0 0 1 0.0434,0.48008 18.717941,18.717941 0 0 1 0.031,0.4811 18.717941,18.717941 0 0 1 0.0186,0.48111 18.717941,18.717941 0 0 1 0.006,0.48214 18.717941,18.717941 0 0 1 -0.0522,1.39889 18.717941,18.717941 0 0 1 -0.15658,1.39112 18.717941,18.717941 0 0 1 -0.260453,1.37512 18.717941,18.717941 0 0 1 -0.36225,1.35237 18.717941,18.717941 0 0 1 -0.4625,1.32136 18.717941,18.717941 0 0 1 -0.55966,1.28261 18.717941,18.717941 0 0 1 -0.6537,1.23765 18.717941,18.717941 0 0 1 -0.74518,1.18546 18.717941,18.717941 0 0 1 -0.830955,1.12603 18.717941,18.717941 0 0 1 -0.645957,0.75034 v 12.59613 a 28.671723,28.671723 0 0 0 9.97716,-9.30641 v -18.44797 a 40.351217,40.351223 54 0 0 -1.01699,-0.62373 40.351217,40.351223 54 0 0 -2.557461,-1.3255 40.351217,40.351223 54 0 0 -2.597777,-1.12086 z" />
      <path
         id="path10089-5-0"
         style="vector-effect:non-scaling-stroke;fill:#8a0f31;fill-opacity:1;stroke:none;stroke-width:0.000447845;stroke-opacity:1;-inkscape-stroke:hairline;stop-color:#000000"
         d="m 67.304881,146.40328 a 40.351219,40.351224 18 0 0 2.21228,-2.34669 40.351219,40.351224 18 0 0 2.42093,-3.13329 40.351219,40.351224 18 0 0 2.10212,-3.35602 40.351219,40.351224 18 0 0 1.762935,-3.54576 40.351219,40.351224 18 0 0 1.406753,-3.70152 40.351219,40.351224 18 0 0 0.403248,-1.31747 40.351219,40.351224 18 0 0 0.358603,-1.33056 40.351219,40.351224 18 0 0 0.312019,-1.34173 40.351219,40.351224 18 0 0 0.266891,-1.35192 40.351219,40.351224 18 0 0 0.219818,-1.36017 40.351219,40.351224 18 0 0 0.173722,-1.36696 40.351219,40.351224 18 0 0 0.127137,-1.37182 40.351219,40.351224 18 0 0 0.07958,-1.3757 40.351219,40.351224 18 0 0 0.033,-1.37715 40.351219,40.351224 18 0 0 -0.01408,-1.37812 40.351219,40.351224 18 0 0 -0.06114,-1.37619 40.351219,40.351224 18 0 0 -0.0078,-0.0985 18.717942,18.717942 0 0 0 -13.900126,-6.187 18.717942,18.717942 0 0 0 -18.71821,18.71821 18.717942,18.717942 0 0 0 18.71821,18.71774 18.717942,18.717942 0 0 0 2.10407,-0.11938 z m -2.10407,-27.33925 a 8.7408039,8.7408039 0 0 1 0.32658,0.006 8.7408039,8.7408039 0 0 1 0.32658,0.0184 8.7408039,8.7408039 0 0 1 0.3256,0.0306 8.7408039,8.7408039 0 0 1 0.32367,0.0427 8.7408039,8.7408039 0 0 1 0.32269,0.0548 8.7408039,8.7408039 0 0 1 0.31979,0.0665 8.7408039,8.7408039 0 0 1 0.31735,0.0791 8.7408039,8.7408039 0 0 1 0.31396,0.0903 8.7408039,8.7408039 0 0 1 0.31057,0.10239 8.7408039,8.7408039 0 0 1 0.30668,0.11355 8.7408039,8.7408039 0 0 1 0.30182,0.1252 8.7408039,8.7408039 0 0 1 0.29698,0.13635 8.7408039,8.7408039 0 0 1 0.29212,0.14704 8.7408039,8.7408039 0 0 1 0.28582,0.15819 8.7408039,8.7408039 0 0 1 0.27999,0.16887 8.7408039,8.7408039 0 0 1 0.27368,0.17906 8.7408039,8.7408039 0 0 1 0.26641,0.18876 8.7408039,8.7408039 0 0 1 0.25961,0.19944 8.7408039,8.7408039 0 0 1 0.25136,0.20818 8.7408039,8.7408039 0 0 1 0.24408,0.21788 8.7408039,8.7408039 0 0 1 0.23535,0.22709 8.7408039,8.7408039 0 0 1 0.22662,0.23535 8.7408039,8.7408039 0 0 1 0.21788,0.2436 8.7408039,8.7408039 0 0 1 0.20866,0.25185 8.7408039,8.7408039 0 0 1 0.19895,0.25912 8.7408039,8.7408039 0 0 1 0.18925,0.2669 8.7408039,8.7408039 0 0 1 0.17906,0.27319 8.7408039,8.7408039 0 0 1 0.16838,0.27999 8.7408039,8.7408039 0 0 1 0.1582,0.2863 8.7408039,8.7408039 0 0 1 0.14751,0.29164 8.7408039,8.7408039 0 0 1 0.13636,0.29698 8.7408039,8.7408039 0 0 1 0.12471,0.30231 8.7408039,8.7408039 0 0 1 0.11404,0.3062 8.7408039,8.7408039 0 0 1 0.1019,0.31056 8.7408039,8.7408039 0 0 1 0.0907,0.31445 8.7408039,8.7408039 0 0 1 0.0786,0.31687 8.7408039,8.7408039 0 0 1 0.067,0.32027 8.7408039,8.7408039 0 0 1 0.0543,0.3222 8.7408039,8.7408039 0 0 1 0.0427,0.32415 8.7408039,8.7408039 0 0 1 0.0306,0.32513 8.7408039,8.7408039 0 0 1 0.0184,0.32657 8.7408039,8.7408039 0 0 1 0.006,0.32706 8.7408039,8.7408039 0 0 1 -0.0553,0.97828 8.7408039,8.7408039 0 0 1 -0.16402,0.96663 8.7408039,8.7408039 0 0 1 -0.27125,0.94187 8.7408039,8.7408039 0 0 1 -0.37511,0.90549 8.7408039,8.7408039 0 0 1 -0.47409,0.85793 8.7408039,8.7408039 0 0 1 -0.56727,0.79921 8.7408039,8.7408039 0 0 1 -0.65315,0.73128 8.7408039,8.7408039 0 0 1 -0.73079,0.65316 8.7408039,8.7408039 0 0 1 -0.7997,0.56677 8.7408039,8.7408039 0 0 1 -0.85793,0.47458 8.7408039,8.7408039 0 0 1 -0.90549,0.3751 8.7408039,8.7408039 0 0 1 -0.94188,0.27126 8.7408039,8.7408039 0 0 1 -0.96614,0.16402 8.7408039,8.7408039 0 0 1 -0.97876,0.0548 8.7408039,8.7408039 0 0 1 -0.97876,-0.0548 8.7408039,8.7408039 0 0 1 -0.96614,-0.16402 8.7408039,8.7408039 0 0 1 -0.94188,-0.27126 8.7408039,8.7408039 0 0 1 -0.90597,-0.3751 8.7408039,8.7408039 0 0 1 -0.85793,-0.47458 8.7408039,8.7408039 0 0 1 -0.79921,-0.56677 8.7408039,8.7408039 0 0 1 -0.7308,-0.65316 8.7408039,8.7408039 0 0 1 -0.65315,-0.73128 8.7408039,8.7408039 0 0 1 -0.56726,-0.79921 8.7408039,8.7408039 0 0 1 -0.4741,-0.85793 8.7408039,8.7408039 0 0 1 -0.3751,-0.90549 8.7408039,8.7408039 0 0 1 -0.27126,-0.94187 8.7408039,8.7408039 0 0 1 -0.16449,-0.96663 8.7408039,8.7408039 0 0 1 -0.0548,-0.97828 8.7408039,8.7408039 0 0 1 0.0548,-0.97876 8.7408039,8.7408039 0 0 1 0.16449,-0.96662 8.7408039,8.7408039 0 0 1 0.27126,-0.94188 8.7408039,8.7408039 0 0 1 0.3751,-0.90549 8.7408039,8.7408039 0 0 1 0.4741,-0.85793 8.7408039,8.7408039 0 0 1 0.56726,-0.79921 8.7408039,8.7408039 0 0 1 0.65315,-0.7308 8.7408039,8.7408039 0 0 1 0.7308,-0.65315 8.7408039,8.7408039 0 0 1 0.79921,-0.56726 8.7408039,8.7408039 0 0 1 0.85793,-0.4741 8.7408039,8.7408039 0 0 1 0.90597,-0.3751 8.7408039,8.7408039 0 0 1 0.94188,-0.27174 8.7408039,8.7408039 0 0 1 0.96614,-0.16402 8.7408039,8.7408039 0 0 1 0.97876,-0.0548 z" />
      <path
         id="path6893-8-2-2"
         style="vector-effect:non-scaling-stroke;fill:#b51642;fill-opacity:1;stroke:none;stroke-width:0.000685996;stroke-opacity:1;-inkscape-stroke:hairline;stop-color:#000000"
         d="m 48.529401,136.27844 a 18.717942,18.717942 0 0 0 0.461,0.88559 18.717942,18.717942 0 0 0 0.87734,1.37716 18.717942,18.717942 0 0 0 0.99428,1.29514 18.717942,18.717942 0 0 0 1.10298,1.20392 18.717942,18.717942 0 0 0 1.20393,1.10347 18.717942,18.717942 0 0 0 1.29562,0.9938 18.717942,18.717942 0 0 0 1.37715,0.87734 18.717942,18.717942 0 0 0 1.44849,0.75409 18.717942,18.717942 0 0 0 1.50866,0.625 18.717942,18.717942 0 0 0 0.40422,0.12763 28.671724,28.671724 0 0 0 2.40491,-0.75069 40.351219,40.351224 71.999997 0 1 -1.5004,-1.65278 40.351219,40.351224 71.999997 0 1 -2.81642,-3.97618 40.351219,40.351224 71.999997 0 1 -1.61881,-2.99693 18.717942,18.717942 0 0 1 -1.13404,0.21448 18.717942,18.717942 0 0 1 -1.39122,0.15674 18.717942,18.717942 0 0 1 -1.3985,0.0524 18.717942,18.717942 0 0 1 -1.399,-0.0524 18.717942,18.717942 0 0 1 -1.39074,-0.15674 18.717942,18.717942 0 0 1 -0.42945,-0.081 z" />
      <path
         id="path11542-6-6"
         style="vector-effect:non-scaling-stroke;fill:#4b2d52;fill-opacity:1;stroke:none;stroke-width:0.000447845;stroke-opacity:1;-inkscape-stroke:hairline;stop-color:#000000"
         d="m 65.201301,109.08671 v 2.87319 a 40.351219,40.351224 36 0 1 1.83135,0.85114 40.351219,40.351224 36 0 1 1.78622,0.94139 40.351219,40.351224 36 0 1 1.29806,0.76913 40.351219,40.351224 36 0 1 1.26894,0.81717 40.351219,40.351224 36 0 1 1.23691,0.86376 40.351219,40.351224 36 0 1 1.26361,0.95643 40.351219,40.351224 36 0 1 1.224783,1.00545 40.351219,40.351224 36 0 1 0.06648,0.0592 v -6.23795 a 18.717942,18.717942 0 0 0 -9.976353,-2.89892 z" />
      <path
         id="path11476-1-5-9"
         style="opacity:0.413988;mix-blend-mode:luminosity;vector-effect:non-scaling-stroke;fill:#3bb0ff;fill-opacity:1;stroke:none;stroke-width:0.000921938;stroke-opacity:1;-inkscape-stroke:hairline;stop-color:#000000"
         d="m 78.390952,88.400962 v 5.1e-4 a 28.671723,28.671723 0 0 0 -3.21324,0.22996 v -0.0496 l -0.212908,0.0646 a 28.671723,28.671723 0 0 0 -9.452136,2.87476 l -0.311608,0.0946 v 17.470768 a 18.717942,18.717942 0 0 0 -5.18e-4,0 18.717942,18.717942 0 0 0 -18.718237,18.71824 18.717942,18.717942 0 0 0 2.039152,8.47183 18.717942,18.717942 0 0 1 -0.06718,-0.0129 39.325206,39.694244 0 0 0 17.064077,3.93206 39.325206,39.694244 0 0 0 7.328749,-0.72348 40.351217,40.351223 18 0 0 1.19321,-1.90479 40.351217,40.351223 18 0 0 1.762683,-3.54604 40.351217,40.351223 18 0 0 1.40715,-3.70158 40.351217,40.351223 18 0 0 0.403076,-1.31723 40.351217,40.351223 18 0 0 0.358633,-1.33067 40.351217,40.351223 18 0 0 0.312126,-1.34152 40.351217,40.351223 18 0 0 0.26665,-1.35185 40.351217,40.351223 18 0 0 0.219625,-1.36064 40.351217,40.351223 18 0 0 0.174151,-1.36685 40.351217,40.351223 18 0 0 0.127125,-1.37149 40.351217,40.351223 18 0 0 0.07958,-1.37614 40.351217,40.351223 18 0 0 0.03255,-1.37718 40.351217,40.351223 18 0 0 -0.01395,-1.37769 40.351217,40.351223 18 0 0 -0.06098,-1.37614 40.351217,40.351223 18 0 0 -0.0078,-0.0987 18.717942,18.717942 0 0 0 -3.923273,-3.30057 V 98.643782 a 18.717941,18.717941 0 0 1 0.423746,-0.0801 18.717941,18.717941 0 0 1 1.391129,-0.15658 18.717941,18.717941 0 0 1 1.398365,-0.0522 18.717941,18.717941 0 0 1 0.482658,0.006 18.717941,18.717941 0 0 1 0.481108,0.0186 18.717941,18.717941 0 0 1 0.481108,0.031 18.717941,18.717941 0 0 1 0.480073,0.0439 18.717941,18.717941 0 0 1 0.478523,0.0553 18.717941,18.717941 0 0 1 0.47749,0.0682 18.717941,18.717941 0 0 1 0.474906,0.0801 18.717941,18.717941 0 0 1 0.473358,0.0925 18.717941,18.717941 0 0 1 0.470255,0.10439 18.717941,18.717941 0 0 1 0.467672,0.1173 18.717941,18.717941 0 0 1 0.464571,0.12816 18.717941,18.717941 0 0 1 0.460952,0.14108 18.717941,18.717941 0 0 1 0.456822,0.15244 18.717941,18.717941 0 0 1 0.453202,0.16433 18.717941,18.717941 0 0 1 0.449067,0.1757 18.717941,18.717941 0 0 1 0.443902,0.18707 18.717941,18.717941 0 0 1 0.439248,0.198438 18.717941,18.717941 0 0 1 0.434083,0.21032 18.717941,18.717941 0 0 1 0.428398,0.22118 18.717941,18.717941 0 0 1 0.422714,0.23202 18.717941,18.717941 0 0 1 0.415994,0.24288 18.717941,18.717941 0 0 1 0.41031,0.25321 18.717941,18.717941 0 0 1 0.403077,0.26407 18.717941,18.717941 0 0 1 0.396359,0.27388 18.717941,18.717941 0 0 1 0.389123,0.28422 18.717941,18.717941 0 0 1 0.381373,0.29404 18.717941,18.717941 0 0 1 0.374136,0.30438 18.717941,18.717941 0 0 1 0.366385,0.31367 18.717941,18.717941 0 0 1 0.357603,0.32246 18.717941,18.717941 0 0 1 0.349848,0.33228 18.717941,18.717941 0 0 1 0.341064,0.34055 18.717941,18.717941 0 0 1 0.331763,0.34985 18.717941,18.717941 0 0 1 0.322461,0.3576 18.717941,18.717941 0 0 1 0.313677,0.36639 18.717941,18.717941 0 0 1 0.304374,0.37362 18.717941,18.717941 0 0 1 0.294039,0.38189 18.717941,18.717941 0 0 1 0.284221,0.38912 18.717941,18.717941 0 0 1 0.274409,0.39636 18.717941,18.717941 0 0 1 0.26406,0.40359 18.717941,18.717941 0 0 1 0.25321,0.4098 18.717941,18.717941 0 0 1 0.24237,0.41651 18.717941,18.717941 0 0 1 0.23202,0.42271 18.717941,18.717941 0 0 1 0.22118,0.4284 18.717941,18.717941 0 0 1 0.20981,0.43356 18.717941,18.717941 0 0 1 0.19895,0.43925 18.717941,18.717941 0 0 1 0.18707,0.4439 18.717941,18.717941 0 0 1 0.1757,0.44907 18.717941,18.717941 0 0 1 0.16485,0.45269 18.717941,18.717941 0 0 1 0.11369,0.34261 40.351217,40.351223 54 0 0 -0.0476,-0.0196 40.351217,40.351223 54 0 0 -2.719732,-0.94878 40.351217,40.351223 54 0 0 -1.037661,-0.28008 v 19.46858 A 39.325206,39.694244 0 0 0 104.50717,105.49448 28.671723,28.671723 0 0 0 78.390952,88.400962 Z m -26.642301,0.77824 a 28.671723,28.671723 0 0 0 -25.322485,15.391308 39.325206,39.694244 0 0 0 7.863603,20.01997 18.717942,18.717942 0 0 1 -0.427882,-1.22215 18.717942,18.717942 0 0 1 -0.362252,-1.35237 18.717942,18.717942 0 0 1 -0.259932,-1.37511 18.717942,18.717942 0 0 1 -0.157096,-1.39165 18.717942,18.717942 0 0 1 -0.05219,-1.39836 18.717942,18.717942 0 0 1 0.05219,-1.39888 18.717942,18.717942 0 0 1 0.157096,-1.39062 18.717942,18.717942 0 0 1 0.259932,-1.37562 18.717942,18.717942 0 0 1 0.362252,-1.35238 18.717942,18.717942 0 0 1 0.462505,-1.32136 18.717942,18.717942 0 0 1 0.559655,-1.28261 18.717942,18.717942 0 0 1 0.654224,-1.23765 18.717942,18.717942 0 0 1 0.744657,-1.18494 18.717942,18.717942 0 0 1 0.831474,-1.12604 18.717942,18.717942 0 0 1 0.912606,-1.06143 18.717942,18.717942 0 0 1 0.990121,-0.99012 18.717942,18.717942 0 0 1 1.0604,-0.91261 18.717942,18.717942 0 0 1 1.126545,-0.83147 18.717942,18.717942 0 0 1 1.185458,-0.74466 18.717942,18.717942 0 0 1 1.237134,-0.65422 18.717942,18.717942 0 0 1 1.283126,-0.55914 18.717942,18.717942 0 0 1 1.321366,-0.462498 18.717942,18.717942 0 0 1 1.351856,-0.36277 18.717942,18.717942 0 0 1 1.375627,-0.25993 18.717942,18.717942 0 0 1 1.391129,-0.15658 18.717942,18.717942 0 0 1 1.398881,-0.0527 18.717942,18.717942 0 0 1 0.481624,0.006 18.717942,18.717942 0 0 1 0.481624,0.0186 18.717942,18.717942 0 0 1 0.481108,0.031 18.717942,18.717942 0 0 1 0.480073,0.0434 18.717942,18.717942 0 0 1 0.478525,0.0558 18.717942,18.717942 0 0 1 0.477491,0.0682 18.717942,18.717942 0 0 1 0.474906,0.0801 18.717942,18.717942 0 0 1 0.473355,0.0925 18.717942,18.717942 0 0 1 0.109554,0.0243 40.351217,40.351223 71.999997 0 1 1.100193,-2.15852 40.351217,40.351223 71.999997 0 1 2.719213,-4.04368 40.351217,40.351223 71.999997 0 1 2.093928,-2.42208 28.671723,28.671723 0 0 0 -9.851594,-1.74925 z M 65.200542,119.0642 h 5.18e-4 a 8.7408037,8.7408037 0 0 1 0.326078,0.006 8.7408037,8.7408037 0 0 1 0.326594,0.0186 8.7408037,8.7408037 0 0 1 0.32608,0.0305 8.7408037,8.7408037 0 0 1 0.323493,0.0429 8.7408037,8.7408037 0 0 1 0.322461,0.0548 8.7408037,8.7408037 0 0 1 0.319878,0.0661 8.7408037,8.7408037 0 0 1 0.317294,0.0796 8.7408037,8.7408037 0 0 1 0.314193,0.0899 8.7408037,8.7408037 0 0 1 0.310573,0.10232 8.7408037,8.7408037 0 0 1 0.306443,0.11369 8.7408037,8.7408037 0 0 1 0.301789,0.12505 8.7408037,8.7408037 0 0 1 0.29714,0.13643 8.7408037,8.7408037 0 0 1 0.291971,0.14728 8.7408037,8.7408037 0 0 1 0.285771,0.15813 8.7408037,8.7408037 0 0 1 0.280088,0.16898 8.7408037,8.7408037 0 0 1 0.273883,0.1788 8.7408037,8.7408037 0 0 1 0.266134,0.18862 8.7408037,8.7408037 0 0 1 0.259932,0.19947 8.7408037,8.7408037 0 0 1 0.251148,0.20825 8.7408037,8.7408037 0 0 1 0.243914,0.21808 8.7408037,8.7408037 0 0 1 0.235643,0.22686 8.7408037,8.7408037 0 0 1 0.226343,0.23564 8.7408037,8.7408037 0 0 1 0.218075,0.2434 8.7408037,8.7408037 0 0 1 0.208772,0.25218 8.7408037,8.7408037 0 0 1 0.198954,0.2589 8.7408037,8.7408037 0 0 1 0.189137,0.26665 8.7408037,8.7408037 0 0 1 0.179316,0.27337 8.7408037,8.7408037 0 0 1 0.16795,0.28008 8.7408037,8.7408037 0 0 1 0.158646,0.28629 8.7408037,8.7408037 0 0 1 0.147278,0.29146 8.7408037,8.7408037 0 0 1 0.136425,0.29714 8.7408037,8.7408037 0 0 1 0.124542,0.3023 8.7408037,8.7408037 0 0 1 0.114204,0.30644 8.7408037,8.7408037 0 0 1 0.101801,0.31058 8.7408037,8.7408037 0 0 1 0.09095,0.31419 8.7408037,8.7408037 0 0 1 0.07855,0.31678 8.7408037,8.7408037 0 0 1 0.06666,0.32039 8.7408037,8.7408037 0 0 1 0.05426,0.32195 8.7408037,8.7408037 0 0 1 0.04289,0.32453 8.7408037,8.7408037 0 0 1 0.03049,0.32504 8.7408037,8.7408037 0 0 1 0.01861,0.32659 8.7408037,8.7408037 0 0 1 0.0057,0.32712 8.7408037,8.7408037 0 0 1 -0.05529,0.97823 8.7408037,8.7408037 0 0 1 -0.163817,0.96635 8.7408037,8.7408037 0 0 1 -0.271301,0.94206 8.7408037,8.7408037 0 0 1 -0.375169,0.90537 8.7408037,8.7408037 0 0 1 -0.473874,0.85783 8.7408037,8.7408037 0 0 1 -0.567407,0.79944 8.7408037,8.7408037 0 0 1 -0.65319,0.73122 8.7408037,8.7408037 0 0 1 -0.730705,0.65319 8.7408037,8.7408037 0 0 1 -0.799952,0.56689 8.7408037,8.7408037 0 0 1 -0.857829,0.47439 8.7408037,8.7408037 0 0 1 -0.90537,0.37517 8.7408037,8.7408037 0 0 1 -0.942062,0.2713 8.7408037,8.7408037 0 0 1 -0.965832,0.16381 8.7408037,8.7408037 0 0 1 -0.978752,0.0548 8.7408037,8.7408037 0 0 1 -0.97875,-0.0548 8.7408037,8.7408037 0 0 1 -0.966351,-0.16381 8.7408037,8.7408037 0 0 1 -0.941543,-0.2713 8.7408037,8.7408037 0 0 1 -0.906405,-0.37517 8.7408037,8.7408037 0 0 1 -0.857829,-0.47439 8.7408037,8.7408037 0 0 1 -0.798917,-0.56689 8.7408037,8.7408037 0 0 1 -0.731221,-0.65319 8.7408037,8.7408037 0 0 1 -0.652674,-0.73122 8.7408037,8.7408037 0 0 1 -0.567407,-0.79944 8.7408037,8.7408037 0 0 1 -0.47439,-0.85783 8.7408037,8.7408037 0 0 1 -0.375172,-0.90537 8.7408037,8.7408037 0 0 1 -0.270785,-0.94206 8.7408037,8.7408037 0 0 1 -0.164846,-0.96635 8.7408037,8.7408037 0 0 1 -0.05478,-0.97823 8.7408037,8.7408037 0 0 1 0.05478,-0.97875 8.7408037,8.7408037 0 0 1 0.164846,-0.96687 8.7408037,8.7408037 0 0 1 0.270785,-0.94155 8.7408037,8.7408037 0 0 1 0.375172,-0.90588 8.7408037,8.7408037 0 0 1 0.47439,-0.85783 8.7408037,8.7408037 0 0 1 0.567407,-0.79892 8.7408037,8.7408037 0 0 1 0.652674,-0.73122 8.7408037,8.7408037 0 0 1 0.731221,-0.65319 8.7408037,8.7408037 0 0 1 0.798917,-0.56689 8.7408037,8.7408037 0 0 1 0.857829,-0.47439 8.7408037,8.7408037 0 0 1 0.906405,-0.37517 8.7408037,8.7408037 0 0 1 0.941543,-0.2713 8.7408037,8.7408037 0 0 1 0.966351,-0.16433 8.7408037,8.7408037 0 0 1 0.97875,-0.0548 z m 22.2281,14.38775 a 18.717941,18.717941 0 0 1 -0.916223,0.48473 18.717941,18.717941 0 0 1 -0.102319,0.0444 40.351217,40.351223 36 0 1 0.03669,0.0935 39.325206,39.694244 0 0 0 0.98185,-0.6227 z" />
    </g>
  </g>
</svg>
